<mxfile host="app.diagrams.net" modified="2023-09-08T13:57:01.963Z" agent="Mozilla/5.0 (Windows NT 10.0; Win64; x64) AppleWebKit/537.36 (KHTML, like Gecko) Chrome/116.0.0.0 Safari/537.36" etag="rOl9tfw6xTkpXc1h_Y1A" version="21.7.2" type="device">
  <diagram id="C5RBs43oDa-KdzZeNtuy" name="Page-1">
    <mxGraphModel dx="934" dy="1765" grid="0" gridSize="10" guides="1" tooltips="1" connect="1" arrows="1" fold="1" page="1" pageScale="1" pageWidth="827" pageHeight="1169" math="0" shadow="0">
      <root>
        <mxCell id="WIyWlLk6GJQsqaUBKTNV-0" />
        <mxCell id="WIyWlLk6GJQsqaUBKTNV-1" parent="WIyWlLk6GJQsqaUBKTNV-0" />
        <mxCell id="wnio3G6jHBfv90rcc4Q--0" value="BEGIN" style="ellipse;whiteSpace=wrap;html=1;" parent="WIyWlLk6GJQsqaUBKTNV-1" vertex="1">
          <mxGeometry x="175" y="-20" width="90" height="50" as="geometry" />
        </mxCell>
        <mxCell id="wnio3G6jHBfv90rcc4Q--1" value="" style="rounded=0;html=1;jettySize=auto;orthogonalLoop=1;fontSize=11;endArrow=block;endFill=0;endSize=8;strokeWidth=1;shadow=0;labelBackgroundColor=none;edgeStyle=orthogonalEdgeStyle;exitX=0.5;exitY=1;exitDx=0;exitDy=0;entryX=0.5;entryY=0;entryDx=0;entryDy=0;" parent="WIyWlLk6GJQsqaUBKTNV-1" source="wnio3G6jHBfv90rcc4Q--0" target="wnio3G6jHBfv90rcc4Q--3" edge="1">
          <mxGeometry relative="1" as="geometry">
            <mxPoint x="219.41" y="50" as="sourcePoint" />
            <mxPoint x="220" y="80" as="targetPoint" />
          </mxGeometry>
        </mxCell>
        <mxCell id="35OyvAojwMnE3HWSyXgO-11" style="edgeStyle=orthogonalEdgeStyle;rounded=0;orthogonalLoop=1;jettySize=auto;html=1;exitX=0.5;exitY=1;exitDx=0;exitDy=0;entryX=0.5;entryY=0;entryDx=0;entryDy=0;" edge="1" parent="WIyWlLk6GJQsqaUBKTNV-1" source="wnio3G6jHBfv90rcc4Q--3" target="35OyvAojwMnE3HWSyXgO-8">
          <mxGeometry relative="1" as="geometry" />
        </mxCell>
        <mxCell id="wnio3G6jHBfv90rcc4Q--3" value="Input a,b,c" style="shape=parallelogram;perimeter=parallelogramPerimeter;whiteSpace=wrap;html=1;fixedSize=1;" parent="WIyWlLk6GJQsqaUBKTNV-1" vertex="1">
          <mxGeometry x="150" y="60" width="140" height="50" as="geometry" />
        </mxCell>
        <mxCell id="35OyvAojwMnE3HWSyXgO-2" value="END" style="ellipse;whiteSpace=wrap;html=1;" vertex="1" parent="WIyWlLk6GJQsqaUBKTNV-1">
          <mxGeometry x="175" y="500" width="90" height="50" as="geometry" />
        </mxCell>
        <mxCell id="35OyvAojwMnE3HWSyXgO-12" style="edgeStyle=orthogonalEdgeStyle;rounded=0;orthogonalLoop=1;jettySize=auto;html=1;exitX=1;exitY=0.5;exitDx=0;exitDy=0;entryX=0;entryY=0.5;entryDx=0;entryDy=0;" edge="1" parent="WIyWlLk6GJQsqaUBKTNV-1" source="35OyvAojwMnE3HWSyXgO-8" target="35OyvAojwMnE3HWSyXgO-10">
          <mxGeometry relative="1" as="geometry" />
        </mxCell>
        <mxCell id="35OyvAojwMnE3HWSyXgO-13" value="true" style="edgeLabel;html=1;align=center;verticalAlign=middle;resizable=0;points=[];" vertex="1" connectable="0" parent="35OyvAojwMnE3HWSyXgO-12">
          <mxGeometry x="-0.1941" relative="1" as="geometry">
            <mxPoint as="offset" />
          </mxGeometry>
        </mxCell>
        <mxCell id="35OyvAojwMnE3HWSyXgO-17" style="edgeStyle=orthogonalEdgeStyle;rounded=0;orthogonalLoop=1;jettySize=auto;html=1;exitX=0.5;exitY=1;exitDx=0;exitDy=0;entryX=0.5;entryY=0;entryDx=0;entryDy=0;" edge="1" parent="WIyWlLk6GJQsqaUBKTNV-1" source="35OyvAojwMnE3HWSyXgO-8" target="35OyvAojwMnE3HWSyXgO-16">
          <mxGeometry relative="1" as="geometry" />
        </mxCell>
        <mxCell id="35OyvAojwMnE3HWSyXgO-18" value="false" style="edgeLabel;html=1;align=center;verticalAlign=middle;resizable=0;points=[];" vertex="1" connectable="0" parent="35OyvAojwMnE3HWSyXgO-17">
          <mxGeometry x="-0.0515" y="-1" relative="1" as="geometry">
            <mxPoint as="offset" />
          </mxGeometry>
        </mxCell>
        <mxCell id="35OyvAojwMnE3HWSyXgO-8" value="a&amp;gt;b" style="rhombus;whiteSpace=wrap;html=1;" vertex="1" parent="WIyWlLk6GJQsqaUBKTNV-1">
          <mxGeometry x="180" y="150" width="80" height="80" as="geometry" />
        </mxCell>
        <mxCell id="35OyvAojwMnE3HWSyXgO-15" style="edgeStyle=orthogonalEdgeStyle;rounded=0;orthogonalLoop=1;jettySize=auto;html=1;exitX=0.5;exitY=1;exitDx=0;exitDy=0;entryX=0.5;entryY=0;entryDx=0;entryDy=0;" edge="1" parent="WIyWlLk6GJQsqaUBKTNV-1" source="35OyvAojwMnE3HWSyXgO-10" target="35OyvAojwMnE3HWSyXgO-14">
          <mxGeometry relative="1" as="geometry" />
        </mxCell>
        <mxCell id="35OyvAojwMnE3HWSyXgO-10" value="a&amp;gt;c" style="rhombus;whiteSpace=wrap;html=1;" vertex="1" parent="WIyWlLk6GJQsqaUBKTNV-1">
          <mxGeometry x="599.58" y="150" width="80" height="80" as="geometry" />
        </mxCell>
        <mxCell id="35OyvAojwMnE3HWSyXgO-27" style="edgeStyle=orthogonalEdgeStyle;rounded=0;orthogonalLoop=1;jettySize=auto;html=1;entryX=1;entryY=1;entryDx=0;entryDy=0;exitX=0.5;exitY=1;exitDx=0;exitDy=0;" edge="1" parent="WIyWlLk6GJQsqaUBKTNV-1" source="35OyvAojwMnE3HWSyXgO-14" target="35OyvAojwMnE3HWSyXgO-2">
          <mxGeometry relative="1" as="geometry">
            <Array as="points">
              <mxPoint x="640" y="543" />
            </Array>
          </mxGeometry>
        </mxCell>
        <mxCell id="35OyvAojwMnE3HWSyXgO-14" value="DISPLAY&lt;br/&gt;“Maximum number is:” + a;" style="shape=parallelogram;perimeter=parallelogramPerimeter;whiteSpace=wrap;html=1;fixedSize=1;" vertex="1" parent="WIyWlLk6GJQsqaUBKTNV-1">
          <mxGeometry x="550" y="260" width="179.17" height="60" as="geometry" />
        </mxCell>
        <mxCell id="35OyvAojwMnE3HWSyXgO-21" style="edgeStyle=orthogonalEdgeStyle;rounded=0;orthogonalLoop=1;jettySize=auto;html=1;exitX=1;exitY=0.5;exitDx=0;exitDy=0;entryX=0;entryY=0.5;entryDx=0;entryDy=0;" edge="1" parent="WIyWlLk6GJQsqaUBKTNV-1" source="35OyvAojwMnE3HWSyXgO-16" target="35OyvAojwMnE3HWSyXgO-20">
          <mxGeometry relative="1" as="geometry" />
        </mxCell>
        <mxCell id="35OyvAojwMnE3HWSyXgO-28" value="true" style="edgeLabel;html=1;align=center;verticalAlign=middle;resizable=0;points=[];" vertex="1" connectable="0" parent="35OyvAojwMnE3HWSyXgO-21">
          <mxGeometry x="0.0431" y="5" relative="1" as="geometry">
            <mxPoint x="1" as="offset" />
          </mxGeometry>
        </mxCell>
        <mxCell id="35OyvAojwMnE3HWSyXgO-23" style="edgeStyle=orthogonalEdgeStyle;rounded=0;orthogonalLoop=1;jettySize=auto;html=1;exitX=0.5;exitY=1;exitDx=0;exitDy=0;entryX=0.5;entryY=0;entryDx=0;entryDy=0;" edge="1" parent="WIyWlLk6GJQsqaUBKTNV-1" source="35OyvAojwMnE3HWSyXgO-16" target="35OyvAojwMnE3HWSyXgO-22">
          <mxGeometry relative="1" as="geometry" />
        </mxCell>
        <mxCell id="35OyvAojwMnE3HWSyXgO-29" value="false" style="edgeLabel;html=1;align=center;verticalAlign=middle;resizable=0;points=[];" vertex="1" connectable="0" parent="35OyvAojwMnE3HWSyXgO-23">
          <mxGeometry x="0.0637" y="-2" relative="1" as="geometry">
            <mxPoint as="offset" />
          </mxGeometry>
        </mxCell>
        <mxCell id="35OyvAojwMnE3HWSyXgO-16" value="b&amp;gt;c" style="rhombus;whiteSpace=wrap;html=1;" vertex="1" parent="WIyWlLk6GJQsqaUBKTNV-1">
          <mxGeometry x="180" y="280" width="80" height="80" as="geometry" />
        </mxCell>
        <mxCell id="35OyvAojwMnE3HWSyXgO-25" style="edgeStyle=orthogonalEdgeStyle;rounded=0;orthogonalLoop=1;jettySize=auto;html=1;exitX=0.5;exitY=1;exitDx=0;exitDy=0;entryX=1;entryY=0.5;entryDx=0;entryDy=0;" edge="1" parent="WIyWlLk6GJQsqaUBKTNV-1" source="35OyvAojwMnE3HWSyXgO-20" target="35OyvAojwMnE3HWSyXgO-2">
          <mxGeometry relative="1" as="geometry" />
        </mxCell>
        <mxCell id="35OyvAojwMnE3HWSyXgO-20" value="DISPLAY&lt;br&gt;“Maximum number is:” + b;" style="shape=parallelogram;perimeter=parallelogramPerimeter;whiteSpace=wrap;html=1;fixedSize=1;" vertex="1" parent="WIyWlLk6GJQsqaUBKTNV-1">
          <mxGeometry x="357" y="290" width="175" height="60" as="geometry" />
        </mxCell>
        <mxCell id="35OyvAojwMnE3HWSyXgO-24" style="edgeStyle=orthogonalEdgeStyle;rounded=0;orthogonalLoop=1;jettySize=auto;html=1;exitX=0.5;exitY=1;exitDx=0;exitDy=0;entryX=0.5;entryY=0;entryDx=0;entryDy=0;" edge="1" parent="WIyWlLk6GJQsqaUBKTNV-1" source="35OyvAojwMnE3HWSyXgO-22" target="35OyvAojwMnE3HWSyXgO-2">
          <mxGeometry relative="1" as="geometry" />
        </mxCell>
        <mxCell id="35OyvAojwMnE3HWSyXgO-22" value="DISPLAY&lt;br&gt;“Maximum number is:” + c;" style="shape=parallelogram;perimeter=parallelogramPerimeter;whiteSpace=wrap;html=1;fixedSize=1;" vertex="1" parent="WIyWlLk6GJQsqaUBKTNV-1">
          <mxGeometry x="117.5" y="400" width="205" height="60" as="geometry" />
        </mxCell>
      </root>
    </mxGraphModel>
  </diagram>
</mxfile>
